<svg id="Layer_1" data-name="Layer 1" xmlns="http://www.w3.org/2000/svg" viewBox="0 0 48.86 48.86"><defs><style>.cls-1{fill:#f7f8f6;}.cls-2{fill:#bbb5bc;}.cls-3,.cls-4,.cls-5,.cls-6,.cls-7{fill:none;stroke-miterlimit:10;}.cls-3{stroke:#565656;}.cls-3,.cls-4,.cls-5,.cls-6{stroke-width:0.2px;}.cls-4{stroke:#666;}.cls-5{stroke:#606060;}.cls-6,.cls-7{stroke:#5e5e5e;}.cls-7{stroke-width:0.4px;}</style></defs><title>white-record-2</title><path class="cls-1" d="M21.05,1.09L21.65,1s0,0,.06,0l0.44-.05A0.47,0.47,0,0,0,22.61.88h0.2a0.53,0.53,0,0,0,.55,0h0.1a0.38,0.38,0,0,0,.29,0c1.14,0,2.29,0,3.43.09,0.86,0.09,1.72.21,2.57,0.38a24,24,0,0,1,5.79,2,23.7,23.7,0,0,1,3.75,2.29A21.38,21.38,0,0,1,41.22,7.2a26,26,0,0,1,2.44,2.59,24,24,0,0,1,4.45,8.68,22.75,22.75,0,0,1,.63,3.14c0.07,0.54.1,1.08,0.16,1.62A13.88,13.88,0,0,1,49,24.87c0,0.55,0,1.1-.06,1.65s-0.12,1.36-.23,2a25.56,25.56,0,0,1-.91,3.76,27.59,27.59,0,0,1-1.35,3.32A21.56,21.56,0,0,1,44.35,39,17.92,17.92,0,0,1,42.79,41c-0.6.63-1.21,1.25-1.86,1.83a26.81,26.81,0,0,1-2.17,1.73,24.11,24.11,0,0,1-3.42,2,23.79,23.79,0,0,1-4.7,1.71,22.54,22.54,0,0,1-2.82.52c-0.63.08-1.26,0.16-1.89,0.17a25.85,25.85,0,0,1-3.36-.08c-0.91-.09-1.82-0.22-2.72-0.39a1.76,1.76,0,0,0-1-.12l-0.09,0a0.08,0.08,0,0,0-.11,0l-0.09,0a0.08,0.08,0,0,0-.11,0h0a0.12,0.12,0,0,0-.15,0h0a0.13,0.13,0,0,0-.16,0,20.53,20.53,0,0,1-3.59-1.34A23.85,23.85,0,0,1,2,32.87,23.37,23.37,0,0,1,.77,22.46,24.33,24.33,0,0,1,21,1.1,0,0,0,0,0,21.05,1.09ZM4.87,17.2l0,0,0,0s-0.06.09,0,.13a0.06,0.06,0,0,0,.09,0C5,17.23,4.94,17.21,4.87,17.2Zm12,8a5.82,5.82,0,0,0,.19,1.58,8,8,0,0,0,2.6,4.28,0.5,0.5,0,0,0,.5.25,0.08,0.08,0,0,1,.05,0c0,0.25.19,0.26,0.31,0.34A7.8,7.8,0,0,0,24.26,33a8.07,8.07,0,0,0,7.38-3.66,7.94,7.94,0,0,0-1.79-10.64A8,8,0,0,0,16.86,25.22Z" transform="translate(-0.34 -0.47)"/><path class="cls-2" d="M18.88,48.37a1.76,1.76,0,0,1,1,.12c0.9,0.17,1.8.3,2.72,0.39a25.85,25.85,0,0,0,3.36.08c0.63,0,1.26-.1,1.89-0.17a22.54,22.54,0,0,0,2.82-.52,23.79,23.79,0,0,0,4.7-1.71,24.11,24.11,0,0,0,3.42-2,26.81,26.81,0,0,0,2.17-1.73c0.65-.58,1.26-1.2,1.86-1.83A17.92,17.92,0,0,0,44.35,39a21.56,21.56,0,0,0,2.06-3.41,27.59,27.59,0,0,0,1.35-3.32,25.56,25.56,0,0,0,.91-3.76c0.11-.67.16-1.36,0.23-2s0.06-1.1.06-1.65a13.88,13.88,0,0,0-.06-1.65c-0.06-.54-0.09-1.08-0.16-1.62a22.75,22.75,0,0,0-.63-3.14,24,24,0,0,0-4.45-8.68A26,26,0,0,0,41.22,7.2a21.38,21.38,0,0,0-1.93-1.59,23.7,23.7,0,0,0-3.75-2.29,24,24,0,0,0-5.79-2C28.9,1.16,28,1.05,27.18,1,26,0.83,24.89.88,23.75,0.86a0.38,0.38,0,0,1-.29,0A8.33,8.33,0,0,1,24.89.76a23.54,23.54,0,0,1,13,3.72A23.75,23.75,0,0,1,48.64,19.85a22.47,22.47,0,0,1,.53,5.58,23.52,23.52,0,0,1-3.34,11.69A24.11,24.11,0,0,1,30.36,48.48a23.76,23.76,0,0,1-11.27,0A0.37,0.37,0,0,1,18.88,48.37Z" transform="translate(-0.34 -0.47)"/><path class="cls-2" d="M18.13,48.16a0.13,0.13,0,0,1,.16,0A0.16,0.16,0,0,1,18.13,48.16Z" transform="translate(-0.34 -0.47)"/><path class="cls-2" d="M18.29,48.21a0.12,0.12,0,0,1,.15,0A0.16,0.16,0,0,1,18.29,48.21Z" transform="translate(-0.34 -0.47)"/><path class="cls-2" d="M18.48,48.26a0.08,0.08,0,0,1,.11,0A0.09,0.09,0,0,1,18.48,48.26Z" transform="translate(-0.34 -0.47)"/><path class="cls-2" d="M18.68,48.32a0.08,0.08,0,0,1,.11,0A0.09,0.09,0,0,1,18.68,48.32Z" transform="translate(-0.34 -0.47)"/><path class="cls-2" d="M16.86,25.22a8,8,0,0,1,13-6.54,7.94,7.94,0,0,1,1.79,10.64A8.07,8.07,0,0,1,24.26,33a7.8,7.8,0,0,1-3.74-1.26c-0.12-.08-0.36-0.09-0.31-0.34a0.08,0.08,0,0,0-.05,0,0.5,0.5,0,0,1-.5-0.25,8,8,0,0,1-2.6-4.28A5.82,5.82,0,0,1,16.86,25.22Zm6.25-3.35,0,0,0,0h0Zm3.17,5.94a0.11,0.11,0,0,0,0-.15l0,0a0.16,0.16,0,0,0,0,.15v0s0,0,0,0Zm0.91,0.66c-0.08,0-.09,0-0.1-0.1s0.06-.07,0-0.07a0.11,0.11,0,0,0,0,.08c0,0.09.08,0.07,0.14,0.09a0.12,0.12,0,0,0,0-.15h0v0.15A0.14,0.14,0,0,0,27.19,28.47Zm0.75-.65c-0.08,0-.12.05-0.1,0.1s0-.07.09,0a0.07,0.07,0,0,1,0,0s0,0.06,0,0a0.08,0.08,0,0,0,0-.06s-0.1,0-.08-0.1h0Zm0.8-5.59c-0.08,0-.06-0.08-0.09-0.13s0-.07-0.05-0.06,0,0.06,0,.1a0.36,0.36,0,0,0,0,.12s0,0.11.06,0.1,0-.08.05-0.12h0Zm-3.18,6s-0.07.06-.11,0,0-.08,0-0.1a0.14,0.14,0,0,0,0,.08,0.13,0.13,0,0,0,0,.13c0-.08.19,0,0.15-0.12a0.05,0.05,0,0,1,.08,0c0,0.15.16,0,.18,0.14s0.09,0.05.12,0,0,0,0-.06-0.18,0-.25,0H25.56ZM26.12,22a0.09,0.09,0,0,1,.08.08c0.06,0.19.09,0,.14,0s0,0.17.09,0.15,0-.14.06-0.21a0.07,0.07,0,0,0,0,0s0-.09,0-0.11-0.08,0-.1.08a1.11,1.11,0,0,0,0,.12,0.13,0.13,0,0,1-.09-0.1s0-.15-0.1-0.12,0,0.1,0,.15a0.06,0.06,0,0,1,0,0h0v0Zm-1.51,4.65c0,0.05.11-.23,0.12,0a0.06,0.06,0,0,0,.08,0c0.08,0,0-.05,0-0.08a0.22,0.22,0,0,1,0,0c0-.06,0-0.13,0-0.19a1.15,1.15,0,0,1-.25,0c-0.11,0-.06.15-0.07,0.24s0,0.11.1,0h0Zm0.25-1.11A0.56,0.56,0,1,0,24.29,25,0.57,0.57,0,0,0,24.86,25.5Zm-3.57,4.23a0.4,0.4,0,0,0,.44-0.29c0-.06.12-0.16,0-0.21a0.15,0.15,0,0,0-.23.07c0,0.11-.1.13-0.18,0s-0.21-.11-0.28.06a0.91,0.91,0,0,1-.17.24c-0.07.08,0,.08,0,0.13A1.6,1.6,0,0,0,21.29,29.73Zm3.36-2.58s0,0,0,0a4,4,0,0,0,1,.1,0.26,0.26,0,0,1,.26,0s0.09,0,.1,0,0-.14,0-0.12-0.24-.15-0.31,0,0,0-.06,0,0-.09,0-0.14l0,0.12c0,0.07,0,0,0,0s-0.22,0-.28-0.13-0.18,0-.26,0-0.05.08-.09,0,0-.17-0.1-0.13A0.45,0.45,0,0,0,24.65,27.16Zm-3.26-5.44c0.06,0,.06-0.07,0-0.12a0.5,0.5,0,0,1,0-.34s0.1,0,0-.08a0.49,0.49,0,0,0-.17,0,1.3,1.3,0,0,0,.09.45A0.14,0.14,0,0,0,21.39,21.72ZM25,26.54c0,0.06,0,.15.07,0.14a0.1,0.1,0,0,0,.1-0.13c0-.07,0-0.19-0.09-0.19S25.07,26.49,25,26.54Zm-4-5.41s0,0,0,.07l0.12,0.46s0,0.06,0,0a0.08,0.08,0,0,0,0-.06c0-.16-0.07-0.32-0.11-0.48Zm5.89,6,0,0.07,0,0.14a0.14,0.14,0,0,1,0-.13c0-.07,0-0.08,0-0.06s-0.12.05-.18,0.07-0.08,0-.07.08,0.05,0.12.1,0,0.05,0,.08,0C27,27.43,27,27.43,27,27.12Zm0.77-5s0,0.07,0,.09,0,0.09,0,.09,0.05,0,.06-0.09a0.47,0.47,0,0,0,0-.07,1.27,1.27,0,0,0,0-.42A0.72,0.72,0,0,0,27.74,22.13Zm-3.08-.26s0,0.1,0,.14a0.07,0.07,0,0,0,0,0c0.06-.18.08-0.11,0.11,0s0,0.08.06,0.07,0-.05,0-0.08a0.21,0.21,0,0,1,0-.09c0.1-.16,0-0.18-0.13-0.19S24.7,21.81,24.66,21.87ZM28,27.31a0.94,0.94,0,0,0-.15.07,0.12,0.12,0,0,0,0,0c0.09,0,.13.09,0.22,0.05a0.09,0.09,0,0,0,.05-0.07s0-.06.05,0,0,0.09,0,0a0.11,0.11,0,0,0,0-.09ZM22.05,29a0.21,0.21,0,0,0-.17.12,0.16,0.16,0,0,0,.16.12,0.14,0.14,0,0,0,.13-0.14A0.11,0.11,0,0,0,22.05,29Zm1.49-7.36a0.19,0.19,0,0,0,.09.2,1.08,1.08,0,0,0,0-.17,0.55,0.55,0,0,0,0-.1,0.29,0.29,0,0,0,0-.15c-0.09,0-.09.09-0.11,0.16S23.54,21.66,23.54,21.68ZM29,22.31s0,0.12,0,.11a1.35,1.35,0,0,1,.11-0.17,0.79,0.79,0,0,1-.08-0.17c-0.09,0,0,.1-0.06.16A0.29,0.29,0,0,0,29,22.31Zm-4.91,6.82S24,29,24,29.15a0.17,0.17,0,0,0,0,.12c0.1,0,0-.08.07-0.1s0,0,.05,0,0,0.1,0,.08,0-.08,0-0.13S24.1,29.16,24.08,29.13Zm1-7.21c0,0.05,0,.14,0,0.15s0-.09,0-0.14,0.06-.2,0-0.2S25.11,21.86,25.08,21.92ZM23,21.71c-0.1,0,0-.19-0.06-0.17s0,0.14,0,.22,0,0.1,0,.1A1.61,1.61,0,0,1,23,21.71Zm2.22,7.49s0,0,0-.05a0.06,0.06,0,0,0-.11,0,0.5,0.5,0,0,1,0,.24l0.09,0,0,0C25,29.3,25.18,29.27,25.21,29.2Zm-0.75-2.87c-0.09,0,0,.23-0.19.14,0,0.06-.09.07-0.07,0.12s0.07,0,.11,0C24.53,26.6,24.43,26.44,24.47,26.33Zm2.24-4.27a0.79,0.79,0,0,0,.14.16s0,0,0-.06a0.35,0.35,0,0,0-.09-0.24C26.74,21.88,26.74,22,26.71,22.06Zm-0.36,5.17s0,0.12,0,.11a0.16,0.16,0,0,0,.09-0.12,0.24,0.24,0,0,0-.08-0.14C26.32,27.09,26.39,27.18,26.35,27.23Zm-4.07-5.6s0-.13,0-0.13,0,0.09-.05.13a0.28,0.28,0,0,0,0,.18C22.32,21.79,22.24,21.68,22.28,21.62Zm0.27,0.06s0,0.08,0,.13a0,0,0,0,0,0,0l0,0c0-.11,0-0.21,0-0.32H22.49s0,0,0,0a0.21,0.21,0,0,1,0,.14S22.55,21.66,22.55,21.69Zm2.27,6.58a0.22,0.22,0,0,1,.07-0.09c0.07,0,0,.08.06,0.1a0.62,0.62,0,0,0,0-.07c0-.06-0.05-0.05-0.08-0.08a0.48,0.48,0,0,1,0-.08l0,0.17S24.79,28.25,24.82,28.26Zm-0.1-.13c-0.1,0,0-.1-0.08-0.11a0.07,0.07,0,0,0-.06,0c0,0.08.06,0.08,0.09,0.11S24.7,28.16,24.72,28.13Zm2.81-.22c0-.11-0.07-0.08-0.12-0.09s-0.06.07-.06,0.09,0,0,.08,0,0,0,0,0,0,0.07,0,.05A0.1,0.1,0,0,0,27.53,27.91Zm-1.81,1.38a0.16,0.16,0,0,1,0,.16c0.17,0,.08-0.11.11-0.17a0.06,0.06,0,0,0-.07-0.09C25.64,29.21,25.77,29.25,25.72,29.28Zm2.67-7.14s0-.1,0-0.1,0,0.06,0,.1,0,0.1,0,.15,0,0.07,0,.07a0.05,0.05,0,0,0,.06-0.06V22.14ZM25.77,22c0,0.05,0,.15,0,0.14s0-.14.06-0.21,0-.11,0-0.1S25.8,21.91,25.77,22Zm-1.29-.14c0-.05.06-0.14,0-0.15s-0.06.08-.06,0.13,0,0.2,0,.2S24.44,21.88,24.48,21.83Zm1.61,5.35s0,0.12,0,.12,0.05-.09.05-0.14,0-.11,0-0.11S26.11,27.13,26.09,27.17Zm1.15-.06c0,0.12,0,.2,0,0.28h0A0.28,0.28,0,0,0,27.24,27.11ZM21.7,21.62a0.43,0.43,0,0,0,0,0,0.18,0.18,0,0,0,0,.09s0,0,0,0,0-.19,0-0.29h0a0.05,0.05,0,0,0,0,0S21.7,21.57,21.7,21.62ZM22,21.79a0.62,0.62,0,0,0,0-.34h0A0.44,0.44,0,0,0,22,21.79Zm4.1,5.94s0,0.11,0,.1a0.28,0.28,0,0,0,.06-0.2,0.12,0.12,0,0,0,0-.06C26,27.6,26.1,27.68,26.07,27.73Zm-0.27.1a0.59,0.59,0,0,0-.06-0.26l0,0A0.23,0.23,0,0,0,25.81,27.83Zm-1.58-.94a0.52,0.52,0,0,0,0,.24h0A0.34,0.34,0,0,0,24.23,26.89ZM27.12,22s0,0,0,0,0.15,0.07.18,0.15a0.17,0.17,0,0,0,0-.06A0.2,0.2,0,0,0,27.12,22Zm-1.89,5.64,0,0.24A0.22,0.22,0,0,0,25.23,27.64Zm0.16,1.61s0-.09,0-0.09,0,0.05,0,.08,0,0.13,0,.14S25.36,29.3,25.39,29.25ZM24.18,22a0.54,0.54,0,0,0,0-.32h0a0.68,0.68,0,0,0,0,.29Zm1.16-.07a0.22,0.22,0,0,0,.16.08,0,0,0,0,0,0-.05l-0.15-.08S25.33,21.86,25.34,21.9Zm3.94,5.41h0l0.07,0.06a0.09,0.09,0,0,0,0,0S29.31,27.32,29.28,27.31Zm-1.77.11a1.06,1.06,0,0,0,.07-0.12s0,0,0,0,0,0.06-.06.1S27.48,27.43,27.51,27.43Zm-2.22.87a0.08,0.08,0,0,0,0,0s0,0,0,0a0.05,0.05,0,0,0,0,0A0.11,0.11,0,0,0,25.29,28.3Zm1.64-.52s0,0.1,0,.11,0-.06,0-0.09,0-.1,0-0.11S26.94,27.74,26.93,27.77Zm-2.11-.18c0-.05,0-0.12-0.06-0.12s0,0,0,.05a0.19,0.19,0,0,0,0,.13Zm-0.61.1-0.07,0h0s0,0,0,0h0.08ZM28.37,28l-0.11,0,0,0s0,0,.07,0Zm-3.25-.37s0,0,0,0v0l0,0A0.07,0.07,0,0,0,25.12,27.66Zm1.31,0.15,0-.07a0.35,0.35,0,0,0,0,.08,0.19,0.19,0,0,0,0,.06ZM25,27.68l0,0a0.12,0.12,0,0,0,0,0s0,0,0,0A0.11,0.11,0,0,0,25,27.68Zm1.49,0.5,0,0h0.06l0,0H26.5Zm3.43-.6,0,0a0.11,0.11,0,0,0,0,0s0,0,0,0A0.11,0.11,0,0,0,29.94,27.57Zm-2.23-.14a0.37,0.37,0,0,0,0-.07l0,0a0.29,0.29,0,0,0,0,.06Zm-2.55.81,0,0a0.13,0.13,0,0,0,0,0s0,0,0,0A0.1,0.1,0,0,0,25.17,28.24Zm-0.9,1,0-.06a0.2,0.2,0,0,0,0,.06,0.19,0.19,0,0,0,0,.06Zm2.92-1.44,0-.06a0.18,0.18,0,0,0,0,.06,0.16,0.16,0,0,0,0,.06Zm-2.57,1.49,0-.05a0.1,0.1,0,0,0,0,0,0.09,0.09,0,0,0,0,.06S24.61,29.3,24.62,29.28Zm2-1.39a0.43,0.43,0,0,0,0-.07,0.13,0.13,0,0,0,0,0,0.74,0.74,0,0,0,0,.09Zm0.76-.73a0.12,0.12,0,0,0,0,0,0.32,0.32,0,0,0,0,.07l0,0A0.38,0.38,0,0,0,27.42,27.16Zm-0.14.71,0,0a0.16,0.16,0,0,0,0,.05,0.15,0.15,0,0,0,0,.05Zm1.08-.08a0.12,0.12,0,0,0,0,0s0,0.05,0,0a0.05,0.05,0,0,0,0,0Zm-6.68-6.6h0Zm3.38,7.08v0h0v0h0Z" transform="translate(-0.34 -0.47)"/><path class="cls-2" d="M4.87,17.2c0.06,0,.12,0,0.08.11a0.06,0.06,0,0,1-.09,0c-0.06,0,0-.09,0-0.13h0Z" transform="translate(-0.34 -0.47)"/><path class="cls-2" d="M4.87,17.2l0,0,0,0h0Z" transform="translate(-0.34 -0.47)"/><path class="cls-1" d="M21.29,29.73a1.58,1.58,0,0,1-.38,0c-0.08,0-.11-0.05,0-0.13A0.91,0.91,0,0,0,21,29.4c0.07-.17.15-0.22,0.28-0.06s0.14,0.07.18,0a0.15,0.15,0,0,1,.23-0.07c0.11,0.05,0,.15,0,0.21A0.4,0.4,0,0,1,21.29,29.73Z" transform="translate(-0.34 -0.47)"/><path class="cls-1" d="M22.05,29a0.11,0.11,0,0,1,.12.1,0.14,0.14,0,0,1-.13.14,0.16,0.16,0,0,1-.16-0.12A0.21,0.21,0,0,1,22.05,29Z" transform="translate(-0.34 -0.47)"/><path class="cls-2" d="M24.61,26.61a0.32,0.32,0,0,1,0-.08,0.08,0.08,0,0,1,0-.1,0.7,0.7,0,0,1,0,.1,0.74,0.74,0,0,1,0,.1h0Z" transform="translate(-0.34 -0.47)"/><path class="cls-2" d="M24.84,21.77a0.14,0.14,0,0,1,0,.05,0,0,0,0,1,0-.05,0.21,0.21,0,0,1,0-.06Z" transform="translate(-0.34 -0.47)"/><path class="cls-2" d="M24.66,28l0,0,0,0,0,0Z" transform="translate(-0.34 -0.47)"/><circle class="cls-3" cx="24.48" cy="24.43" r="21.85"/><circle class="cls-4" cx="24.53" cy="24.47" r="19.74"/><circle class="cls-5" cx="24.55" cy="24.52" r="17.39"/><circle class="cls-4" cx="24.54" cy="24.48" r="15.21"/><circle class="cls-6" cx="24.55" cy="24.52" r="13.04"/><circle class="cls-7" cx="24.55" cy="24.49" r="8.03"/><line x1="24.54" y1="23.13" x2="24.55" y2="1.26"/><path d="M25.63,23.6V1.73a0.75,0.75,0,0,0-1.5,0V23.6a0.75,0.75,0,0,0,1.5,0h0Z" transform="translate(-0.34 -0.47)"/><circle class="cls-3" cx="24.43" cy="24.43" r="24.33"/></svg>