<svg id="Layer_1" data-name="Layer 1" xmlns="http://www.w3.org/2000/svg" viewBox="0 0 100 100"><defs><style>.cls-1{fill:#f7f8f6;}.cls-2{fill:#bbb5bc;}.cls-3,.cls-4,.cls-5,.cls-6,.cls-7{fill:none;stroke-miterlimit:10;}.cls-3{stroke:#565656;}.cls-3,.cls-4,.cls-5,.cls-6{stroke-width:0.2px;}.cls-4{stroke:#666;}.cls-5{stroke:#606060;}.cls-6,.cls-7{stroke:#5e5e5e;}.cls-7{stroke-width:0.4px;}</style></defs><title>white-record</title><path class="cls-1" d="M42.07,0.86l1.23-.18c0,0.08.09,0.06,0.11,0l0.92-.11a1,1,0,0,0,.95-0.1l0.41,0A1.1,1.1,0,0,0,46.83.32H47a0.78,0.78,0,0,0,.59.09c2.36,0,4.71-.07,7.07.19C56.47,0.79,58.24,1,60,1.37A49.43,49.43,0,0,1,71.91,5.45a48.81,48.81,0,0,1,7.72,4.72,44,44,0,0,1,4,3.28,53.6,53.6,0,0,1,5,5.34A49.32,49.32,0,0,1,97.8,36.66a46.85,46.85,0,0,1,1.31,6.46c0.15,1.11.21,2.22,0.34,3.33a28.58,28.58,0,0,1,.12,3.4c0,1.13,0,2.26-.12,3.4-0.14,1.4-.25,2.81-0.48,4.19a52.65,52.65,0,0,1-1.88,7.75A56.81,56.81,0,0,1,94.29,72a44.4,44.4,0,0,1-4.24,7,36.9,36.9,0,0,1-3.22,4c-1.24,1.29-2.49,2.58-3.83,3.77a55.22,55.22,0,0,1-4.47,3.56,49.64,49.64,0,0,1-7,4.18A49,49,0,0,1,61.81,98,46.41,46.41,0,0,1,56,99.08c-1.3.16-2.59,0.32-3.89,0.36a53.23,53.23,0,0,1-6.91-.16c-1.88-.19-3.74-0.46-5.59-0.81a3.63,3.63,0,0,0-2-.24l-0.18,0a0.16,0.16,0,0,0-.23-0.07l-0.18,0A0.16,0.16,0,0,0,36.77,98a0.11,0.11,0,0,1-.09,0,0.25,0.25,0,0,0-.31-0.09h0A0.26,0.26,0,0,0,36,97.81a42.28,42.28,0,0,1-7.39-2.76A49.11,49.11,0,0,1,2.74,66.32,48.13,48.13,0,0,1,.29,44.87,50.11,50.11,0,0,1,41.92.89,0.09,0.09,0,0,0,42.07.86ZM8.75,34L8.69,34l0,0.05c0,0.09-.13.19,0,0.27a0.12,0.12,0,0,0,.18,0C9,34.12,8.88,34.07,8.75,34ZM33.44,50.56a12,12,0,0,0,.4,3.26,16.49,16.49,0,0,0,5.35,8.82,1,1,0,0,0,1,.51,0.16,0.16,0,0,1,.11.09c-0.1.52,0.39,0.53,0.64,0.69a16.06,16.06,0,0,0,7.7,2.6A16.62,16.62,0,0,0,63.86,59a16.36,16.36,0,0,0-3.69-21.91A16.54,16.54,0,0,0,33.44,50.56Z"/><path class="cls-2" d="M37.59,98.23a3.63,3.63,0,0,1,2,.24c1.85,0.35,3.71.62,5.59,0.81a53.23,53.23,0,0,0,6.91.16c1.3,0,2.59-.2,3.89-0.36A46.41,46.41,0,0,0,61.81,98a49,49,0,0,0,9.68-3.52,49.64,49.64,0,0,0,7-4.18A55.22,55.22,0,0,0,83,86.75c1.34-1.19,2.59-2.48,3.83-3.77a36.9,36.9,0,0,0,3.22-4,44.4,44.4,0,0,0,4.24-7,56.81,56.81,0,0,0,2.79-6.83A52.65,52.65,0,0,0,99,57.43c0.22-1.39.34-2.79,0.48-4.19,0.11-1.13.11-2.27,0.12-3.4a28.58,28.58,0,0,0-.12-3.4c-0.12-1.11-.19-2.22-0.34-3.33a46.85,46.85,0,0,0-1.31-6.46,49.32,49.32,0,0,0-9.17-17.87,53.6,53.6,0,0,0-5-5.34,44,44,0,0,0-4-3.28,48.81,48.81,0,0,0-7.72-4.72A49.43,49.43,0,0,0,60,1.37C58.24,1,56.47.79,54.69,0.59,52.34,0.34,50,.43,47.63.4A0.78,0.78,0,0,1,47,.31,17.15,17.15,0,0,1,50,.19,48.47,48.47,0,0,1,76.73,7.84,48.91,48.91,0,0,1,98.88,39.5,46.28,46.28,0,0,1,100,51,48.44,48.44,0,0,1,93.1,75.08,49.65,49.65,0,0,1,61.23,98.46,48.93,48.93,0,0,1,38,98.38,0.77,0.77,0,0,1,37.59,98.23Z"/><path class="cls-2" d="M36,97.81a0.26,0.26,0,0,1,.33.09A0.33,0.33,0,0,1,36,97.81Z"/><path class="cls-2" d="M36.37,97.91a0.25,0.25,0,0,1,.31.09A0.32,0.32,0,0,1,36.37,97.91Z"/><path class="cls-2" d="M36.77,98a0.16,0.16,0,0,1,.22.07A0.19,0.19,0,0,1,36.77,98Z"/><path class="cls-2" d="M37.18,98.12a0.16,0.16,0,0,1,.23.07A0.19,0.19,0,0,1,37.18,98.12Z"/><path class="cls-2" d="M33.44,50.56A16.56,16.56,0,0,1,60.17,37.09,16.36,16.36,0,0,1,63.86,59a16.62,16.62,0,0,1-15.2,7.53,16.06,16.06,0,0,1-7.7-2.6c-0.25-.17-0.74-0.18-0.64-0.69a0.16,0.16,0,0,0-.11-0.09,1,1,0,0,1-1-.51,16.49,16.49,0,0,1-5.35-8.82A12,12,0,0,1,33.44,50.56Zm12.87-6.9-0.06.07,0.05-.06h0Zm6.53,12.23a0.22,0.22,0,0,0,.08-0.3,0.12,0.12,0,0,0-.07-0.05,0.34,0.34,0,0,0,0,.32,0.13,0.13,0,0,0,0,0s-0.09,0-.06,0Zm1.88,1.36c-0.17,0-.19-0.07-0.2-0.2s0.12-.15,0-0.15a0.23,0.23,0,0,0-.08.17c0,0.19.17,0.15,0.29,0.18a0.26,0.26,0,0,0,.06-0.31l0,0c0,0.1,0,.2,0,0.3A0.29,0.29,0,0,0,54.71,57.25Zm1.55-1.34c-0.16,0-.26.11-0.2,0.21s0.08-.14.19-0.07a0.14,0.14,0,0,1,.09.1s0,0.12.07,0.09a0.17,0.17,0,0,0,0-.13c0-.09-0.21-0.06-0.16-0.21v0ZM57.9,44.39c-0.16,0-.13-0.17-0.18-0.26s0-.15-0.11-0.13,0,0.13,0,.2a0.74,0.74,0,0,0,.08.24c0,0.07,0,.24.13,0.21s0.07-.17.11-0.25h0ZM51.35,56.7c-0.07,0-.14.11-0.22,0s0-.17-0.06-0.21a0.3,0.3,0,0,0-.08.16,0.26,0.26,0,0,0,0,.26c0-.17.39,0.08,0.31-0.24a0.11,0.11,0,0,1,.17,0c-0.05.32,0.34,0.07,0.36,0.29,0.06-.09.18,0.11,0.24-0.07s-0.06-.08-0.1-0.12-0.36,0-.51-0.1H51.35ZM52.5,43.86a0.19,0.19,0,0,1,.16.17c0.13,0.4.19,0,.28,0,0.25,0,0,.35.19,0.3s0.07-.29.12-0.44a0.14,0.14,0,0,0,0-.05c0-.08.08-0.18,0-0.22s-0.16.09-.2,0.17A2.29,2.29,0,0,0,53,44a0.27,0.27,0,0,1-.19-0.2c-0.06-.1,0-0.32-0.21-0.26s0,0.21-.05.31a0.13,0.13,0,0,1,0,0l0,0Zm-3.11,9.57c0.07,0.11.23-.48,0.25,0a0.12,0.12,0,0,0,.17.07c0.17-.07,0-0.11,0-0.17a0.46,0.46,0,0,1,0-.09c0-.13,0-0.26,0-0.39a2.38,2.38,0,0,1-.52,0c-0.23,0-.12.31-0.14,0.49s0.07,0.22.2,0.08h0Zm0.51-2.28A1.16,1.16,0,1,0,48.73,50,1.18,1.18,0,0,0,49.91,51.14Zm-7.35,8.71a0.82,0.82,0,0,0,.9-0.6c0.06-.12.25-0.33,0-0.43A0.32,0.32,0,0,0,43,59c-0.08.22-.2,0.27-0.37,0.07s-0.43-.22-0.58.13a1.88,1.88,0,0,1-.35.5c-0.14.16-.09,0.17,0.08,0.26S42.29,59.73,42.56,59.85Zm6.92-5.3s0,0,.08,0a8.17,8.17,0,0,0,2,.2,0.54,0.54,0,0,1,.53.06s0.19,0.07.21,0,0-.28-0.07-0.26-0.49-.3-0.64.09c0,0.09-.08.1-0.12,0s-0.07-.19-0.1-0.28l-0.09.25c-0.06.14-.06,0.06-0.08,0-0.07-.37-0.46-0.1-0.58-0.26-0.25-.36-0.37,0-0.54.07s-0.11.17-.19,0,0-.34-0.2-0.27A0.93,0.93,0,0,0,49.48,54.55ZM42.77,43.34c0.13-.06.12-0.15,0.08-0.25a1,1,0,0,1-.08-0.69c0-.06.2-0.08,0.06-0.17a1,1,0,0,0-.34-0.07,2.68,2.68,0,0,0,.19.92A0.28,0.28,0,0,0,42.77,43.34Zm7.51,9.94c0,0.13-.07.31,0.15,0.3a0.21,0.21,0,0,0,.21-0.27c0-.15.07-0.39-0.19-0.39S50.34,53.17,50.29,53.29ZM42.12,42.15c-0.1,0-.1.07-0.08,0.14l0.24,1s0,0.12.07,0.08a0.16,0.16,0,0,0,.08-0.12c-0.07-.33-0.15-0.66-0.23-1A0.19,0.19,0,0,0,42.12,42.15ZM54.26,54.48a1.51,1.51,0,0,0-.06.14l-0.08.29a0.28,0.28,0,0,1-.06-0.27c0-.15-0.08-0.16-0.08-0.12,0,0.34-.25.11-0.37,0.14s-0.17.08-.14,0.17,0.11,0.25.21,0c0-.07.11,0,0.17,0C54.28,55.11,54.29,55.1,54.26,54.48ZM55.85,44.2c0,0.09,0,.14,0,0.2s0,0.18.09,0.19,0.11-.1.11-0.18a1,1,0,0,0,0-.15,2.62,2.62,0,0,0,0-.87A1.49,1.49,0,0,0,55.85,44.2Zm-6.35-.54c0,0.1,0,.2,0,0.3a0.14,0.14,0,0,0,.09-0.08c0.12-.36.17-0.22,0.22,0,0,0.07,0,.16.11,0.14s0.05-.11,0-0.17a0.44,0.44,0,0,1,0-.19c0.21-.34,0-0.37-0.26-0.39S49.57,43.53,49.49,43.66Zm6.78,11.21A1.94,1.94,0,0,0,56,55a0.24,0.24,0,0,0,0,.1c0.18-.07.27,0.18,0.46,0.11a0.18,0.18,0,0,0,.11-0.15c0-.07,0-0.13.11,0s-0.06.19,0.08,0.09a0.22,0.22,0,0,0,0-.18A3.06,3.06,0,0,0,56.28,54.87ZM44.13,58.44a0.44,0.44,0,0,0-.35.24,0.33,0.33,0,0,0,.33.25,0.28,0.28,0,0,0,.28-0.3A0.22,0.22,0,0,0,44.13,58.44Zm3.06-15.16a0.38,0.38,0,0,0,.19.41,2.21,2.21,0,0,0,0-.34,1.14,1.14,0,0,0,0-.2,0.59,0.59,0,0,0,0-.31c-0.19,0-.19.19-0.22,0.34S47.2,43.23,47.19,43.28Zm11.22,1.29c0,0.08-.1.24,0.07,0.22a2.79,2.79,0,0,1,.23-0.34,1.64,1.64,0,0,1-.16-0.36c-0.19,0-.08.21-0.12,0.33A0.6,0.6,0,0,0,58.41,44.57Zm-10.1,14c-0.09.08-.22-0.21-0.28,0a0.36,0.36,0,0,0,0,.24c0.2,0.07,0-.16.14-0.2s0.08,0,.11,0,0,0.22.09,0.17,0-.17,0-0.28S48.34,58.68,48.31,58.61Zm2-14.85c0,0.1-.1.29,0.07,0.3s0.09-.19.1-0.29,0.12-.4,0-0.41S50.43,43.64,50.35,43.77Zm-4.3-.44c-0.2,0,0-.39-0.13-0.35s-0.07.3-.1,0.46-0.09.21,0,.21A3.31,3.31,0,0,1,46.06,43.32Zm4.58,15.43s0-.07-0.05-0.11a0.13,0.13,0,0,0-.22,0,1,1,0,0,1-.07.5l0.19,0a0.17,0.17,0,0,0,.07,0C50.25,59,50.57,58.9,50.64,58.76ZM49.1,52.84c-0.18.08-.08,0.47-0.39,0.29,0,0.13-.19.14-0.15,0.24s0.15,0,.22,0C49.23,53.41,49,53.07,49.1,52.84Zm4.62-8.79a1.62,1.62,0,0,0,.29.33c0.08,0.05.09-.07,0.08-0.13a0.72,0.72,0,0,0-.18-0.5C53.78,43.68,53.78,43.91,53.72,44.05ZM53,54.69c0,0.1-.07.24,0.09,0.22a0.32,0.32,0,0,0,.18-0.26,0.5,0.5,0,0,0-.17-0.3C52.91,54.42,53.06,54.6,53,54.69ZM44.6,43.15c0-.09.07-0.26,0-0.27s-0.1.18-.11,0.27a0.58,0.58,0,0,0,0,.37C44.68,43.5,44.51,43.27,44.6,43.15Zm0.56,0.13c0,0.07,0,.17,0,0.27a0.08,0.08,0,0,0,0,.07,0.11,0.11,0,0,0,.08,0c0-.22,0-0.44,0-0.66H45c0-.07.07,0,0.08,0a0.43,0.43,0,0,1,0,.29S45.15,43.23,45.15,43.28Zm4.67,13.54A0.46,0.46,0,0,1,50,56.63c0.14,0,0,.16.12,0.21a1.29,1.29,0,0,0,0-.15c0-.12-0.11-0.11-0.16-0.17a1,1,0,0,1-.09-0.16l-0.08.35S49.76,56.81,49.83,56.82Zm-0.21-.27c-0.21,0,0-.21-0.17-0.22a0.15,0.15,0,0,0-.12.08c-0.06.17,0.11,0.17,0.19,0.24S49.58,56.62,49.62,56.55Zm5.79-.46c0-.22-0.15-0.16-0.24-0.18s-0.13.15-.11,0.18c0.16,0.23.1-.06,0.16-0.08s0.07,0,.1.07,0,0.15.08,0.11A0.21,0.21,0,0,0,55.41,56.1Zm-3.72,2.84a0.33,0.33,0,0,1-.08.32c0.34,0,.16-0.22.22-0.35a0.12,0.12,0,0,0-.14-0.19C51.51,58.77,51.79,58.86,51.69,58.93Zm5.49-14.7c0-.05.08-0.2-0.07-0.21S57,44.15,57,44.22s0,0.2,0,.3,0,0.14.06,0.15a0.1,0.1,0,0,0,.12-0.12Zm-5.4-.37c0,0.1-.06.32,0.06,0.28s0.09-.29.12-0.44,0-.22,0-0.2S51.84,43.75,51.78,43.86Zm-2.66-.29c0-.11.12-0.29,0-0.32S49,43.43,49,43.52s-0.09.41,0,.41S49.05,43.69,49.12,43.57Zm3.32,11c0,0.09-.09.25,0,0.25s0.1-.18.11-0.3,0-.23,0-0.23S52.48,54.49,52.44,54.58Zm2.38-.13c0,0.24-.05.41-0.07,0.58l0.08,0A0.58,0.58,0,0,0,54.81,54.46ZM43.41,43.15a0.88,0.88,0,0,0,0,.1,0.36,0.36,0,0,0,0,.19s0.09,0,.1-0.06c0-.2,0-0.4.05-0.6a0.19,0.19,0,0,0-.09,0,0.1,0.1,0,0,0,0,.07C43.42,42.95,43.41,43,43.41,43.15ZM44,43.5a1.28,1.28,0,0,0,.08-0.7h0A0.91,0.91,0,0,0,44,43.5Zm8.44,12.24c0,0.07,0,.23,0,0.21a0.58,0.58,0,0,0,.12-0.4,0.24,0.24,0,0,0,0-.13C52.35,55.46,52.46,55.62,52.41,55.73Zm-0.55.2a1.22,1.22,0,0,0-.11-0.53,0.18,0.18,0,0,0-.08,0A0.47,0.47,0,0,0,51.86,55.94ZM48.61,54a1.06,1.06,0,0,0-.05.49,0.19,0.19,0,0,0,.09,0A0.7,0.7,0,0,0,48.61,54Zm5.94-10.06c-0.06,0-.1,0-0.08.09s0.3,0.14.37,0.31a0.35,0.35,0,0,0,0-.13A0.41,0.41,0,0,0,54.56,43.93ZM50.67,55.55l0,0.5A0.46,0.46,0,0,0,50.67,55.55ZM51,58.87c0-.08.06-0.19-0.07-0.19s-0.06.1-.06,0.16-0.08.27,0,.29S50.95,59,51,58.87Zm-2.48-15a1.11,1.11,0,0,0,.1-0.65l-0.08,0a1.39,1.39,0,0,0-.08.59A0.33,0.33,0,0,0,48.51,43.88Zm2.4-.15a0.45,0.45,0,0,0,.32.17,0.07,0.07,0,0,0,0-.11,1.46,1.46,0,0,0-.3-0.17C50.9,43.59,50.88,43.64,50.91,43.73ZM59,54.87l-0.08,0L59.08,55a0.19,0.19,0,0,0,0-.08C59.12,54.88,59.07,54.88,59,54.87Zm-3.65.23a2.19,2.19,0,0,0,.15-0.24c0-.09-0.05-0.06-0.08-0.07s-0.1.13-.12,0.21S55.3,55.1,55.37,55.11ZM50.79,56.9a0.17,0.17,0,0,0,0-.07s0-.1,0-0.09a0.11,0.11,0,0,0,0,.08A0.22,0.22,0,0,0,50.79,56.9Zm3.38-1.08c0,0.08,0,.21,0,0.22s0.07-.12.07-0.19,0-.21,0-0.22S54.19,55.75,54.17,55.82Zm-4.34-.37c0-.11,0-0.24-0.12-0.25s-0.06.06,0,.11a0.38,0.38,0,0,0,.1.26Zm-1.26.2a0.91,0.91,0,0,0-.15-0.1,0.09,0.09,0,0,0-.08,0c0,0.07,0,.07.07,0.07h0.17Zm8.57,0.7-0.23-.06a0.12,0.12,0,0,0-.08,0c0,0.08.08,0.07,0.14,0.07Zm-6.7-.76s-0.06,0-.06,0,0,0.07,0,.1a0.27,0.27,0,0,0,.08-0.07A0.15,0.15,0,0,0,50.45,55.58Zm2.7,0.3-0.06-.15a0.71,0.71,0,0,0,0,.16,0.4,0.4,0,0,0,0,.13Zm-2.92-.26,0-.09a0.25,0.25,0,0,0,0,.09s0,0.1.06,0.09A0.23,0.23,0,0,0,50.23,55.62Zm3.07,1a0.25,0.25,0,0,0,.08,0h0.13a0.15,0.15,0,0,0-.06,0Zm7.07-1.25,0-.08a0.23,0.23,0,0,0,0,.08s0,0.09,0,.09A0.22,0.22,0,0,0,60.37,55.4Zm-4.58-.29a0.77,0.77,0,0,0,0-.14,0.15,0.15,0,0,0,0-.06,0.59,0.59,0,0,0,0,.13A0.21,0.21,0,0,0,55.79,55.11Zm-5.25,1.67,0-.09a0.27,0.27,0,0,0,0,.08s0,0.1.05,0.09A0.21,0.21,0,0,0,50.54,56.78Zm-1.85,2-0.05-.12a0.41,0.41,0,0,0,0,.13,0.39,0.39,0,0,0,0,.13Zm6-3-0.08-.13a0.36,0.36,0,0,0-.05.13,0.33,0.33,0,0,0,.06.12Zm-5.29,3.06-0.05-.11a0.2,0.2,0,0,0,0,.08,0.18,0.18,0,0,0,0,.13C49.4,59,49.39,59,49.41,58.92Zm4.22-2.86a0.89,0.89,0,0,0,0-.15,0.27,0.27,0,0,0,0-.09,1.53,1.53,0,0,0,0,.18A0.21,0.21,0,0,0,53.63,56.06Zm1.56-1.5a0.24,0.24,0,0,0-.07.08,0.66,0.66,0,0,0,0,.14,0.16,0.16,0,0,0,.06-0.06A0.78,0.78,0,0,0,55.18,54.56ZM54.89,56l0-.1a0.32,0.32,0,0,0,0,.11,0.31,0.31,0,0,0,0,.11Zm2.22-.16a0.24,0.24,0,0,0,0,.09s0,0.11.07,0.07a0.11,0.11,0,0,0,0-.09A0.21,0.21,0,0,0,57.11,55.88ZM43.36,42.28l0,0-0.08,0,0,0Zm7,14.59a0.08,0.08,0,0,0,0,0l0,0a0.08,0.08,0,0,0,0,0Z"/><path class="cls-2" d="M8.75,34c0.13,0,.24.07,0.17,0.23a0.12,0.12,0,0,1-.18,0c-0.13-.08,0-0.18,0-0.27h0Z"/><path class="cls-2" d="M8.74,34.05l0-.05,0.05,0h0Z"/><path class="cls-1" d="M42.56,59.85c-0.27-.12-0.47.26-0.78,0.08s-0.22-.1-0.08-0.26a1.88,1.88,0,0,0,.35-0.5c0.14-.34.3-0.45,0.58-0.13s0.29,0.14.37-.07a0.32,0.32,0,0,1,.47-0.15c0.23,0.11,0,.31,0,0.43A0.82,0.82,0,0,1,42.56,59.85Z"/><path class="cls-1" d="M44.13,58.44a0.22,0.22,0,0,1,.25.2,0.28,0.28,0,0,1-.28.3,0.33,0.33,0,0,1-.33-0.25A0.44,0.44,0,0,1,44.13,58.44Z"/><path class="cls-2" d="M49.4,53.41a0.67,0.67,0,0,1-.09-0.18A0.17,0.17,0,0,1,49.39,53a1.44,1.44,0,0,1,0,.2,1.52,1.52,0,0,1,0,.2h0Z"/><path class="cls-2" d="M49.88,43.46a0.28,0.28,0,0,1-.08.11,0.08,0.08,0,0,1-.09-0.11,0.43,0.43,0,0,1,.08-0.11Z"/><path class="cls-2" d="M49.5,56.34l0,0.07a0.09,0.09,0,0,1,0,0,0.32,0.32,0,0,1,0-.07Z"/><circle class="cls-3" cx="49.83" cy="49.9" r="45"/><circle class="cls-4" cx="49.93" cy="49.98" r="40.65"/><circle class="cls-5" cx="49.98" cy="50.09" r="35.82"/><circle class="cls-4" cx="49.96" cy="50" r="31.32"/><circle class="cls-6" cx="49.98" cy="50.09" r="26.86"/><circle class="cls-7" cx="49.98" cy="50.03" r="16.55"/><line x1="49.95" y1="47.23" x2="49.97" y2="2.19"/><path d="M51.45,47.23v-45a1.5,1.5,0,0,0-3,0v45a1.5,1.5,0,0,0,3,0h0Z"/></svg>